<?xml version="1.0" encoding="UTF-8"?>
<svg id="Layer_2" data-name="Layer 2" xmlns="http://www.w3.org/2000/svg" viewBox="0 0 134.15 70.46">
  <defs>
    <style>
      .cls-1 {
        fill: #231f20;
      }

      .cls-2 {
        fill: none;
        stroke: #231f20;
        stroke-linecap: round;
        stroke-linejoin: round;
        stroke-width: 3px;
      }
    </style>
  </defs>
  <g id="Layer_1-2" data-name="Layer 1">
    <g>
      <path class="cls-1" d="M45.11,47.47h-5.7v-2.16c-1.68,1.96-4.18,2.94-7.5,2.94s-5.97-1.28-7.95-3.84c-1.98-2.56-2.97-5.56-2.97-9s1.01-6.37,3.03-8.79c2.02-2.42,4.61-3.63,7.77-3.63,3.36,0,5.9,1,7.62,3v-2.22h5.7v23.7ZM40.07,35.59c0-2.2-.62-4.01-1.86-5.43-1.24-1.42-2.83-2.13-4.77-2.13s-3.52.69-4.74,2.07c-1.22,1.38-1.83,3.21-1.83,5.49s.62,4.12,1.86,5.52c1.24,1.4,2.84,2.1,4.8,2.1s3.54-.68,4.74-2.04c1.2-1.36,1.8-3.22,1.8-5.58Z"/>
      <path class="cls-1" d="M72.41,47.47h-5.7v-2.16c-1.68,1.96-4.18,2.94-7.5,2.94s-5.97-1.28-7.95-3.84c-1.98-2.56-2.97-5.56-2.97-9s1.01-6.37,3.03-8.79c2.02-2.42,4.61-3.63,7.77-3.63,3.36,0,5.9,1,7.62,3v-2.22h5.7v23.7ZM67.37,35.59c0-2.2-.62-4.01-1.86-5.43-1.24-1.42-2.83-2.13-4.77-2.13s-3.52.69-4.74,2.07c-1.22,1.38-1.83,3.21-1.83,5.49s.62,4.12,1.86,5.52c1.24,1.4,2.84,2.1,4.8,2.1s3.54-.68,4.74-2.04c1.2-1.36,1.8-3.22,1.8-5.58Z"/>
      <path class="cls-1" d="M83.09,25.87c1.48-1.92,3.76-2.88,6.84-2.88,2.68,0,4.8,1.24,6.36,3.72,1.52-2.48,3.98-3.72,7.38-3.72,5,0,7.5,3.24,7.5,9.72v14.76h-5.76v-12.48c0-5.04-1.38-7.56-4.14-7.56s-4.14,2.8-4.14,8.4v11.64h-5.82v-12c0-5.36-1.22-8.04-3.66-8.04-3.04,0-4.56,2.8-4.56,8.4v11.64h-5.82v-23.7h5.82v2.1Z"/>
    </g>
    <path class="cls-2" d="M1.5,44.48C1.5,20.74,20.74,1.5,44.48,1.5"/>
    <path class="cls-2" d="M132.65,25.98c0,23.73-19.24,42.98-42.98,42.98"/>
  </g>
</svg>